<svg xmlns="http://www.w3.org/2000/svg" viewBox="0 0 32 32">
  <!-- Background -->
  <rect width="32" height="32" rx="6" fill="#1e1e1e"/>
  <!-- Cube faces (isometric CAD style) -->
  <path d="M16 6 L26 12 L26 22 L16 28 L6 22 L6 12 Z" fill="#3e3e42" stroke="#007acc" stroke-width="1.5"/>
  <path d="M16 6 L26 12 L16 18 L6 12 Z" fill="#4a4a4e"/>
  <path d="M16 18 L26 12 L26 22 L16 28 Z" fill="#2d2d30"/>
  <path d="M16 18 L6 12 L6 22 L16 28 Z" fill="#3e3e42"/>
  <!-- Accent lines -->
  <path d="M16 6 L16 18" stroke="#007acc" stroke-width="1" opacity="0.8"/>
  <path d="M16 18 L26 12" stroke="#007acc" stroke-width="1" opacity="0.6"/>
  <path d="M16 18 L6 12" stroke="#007acc" stroke-width="1" opacity="0.6"/>
  <!-- Corner highlights -->
  <circle cx="16" cy="6" r="1.5" fill="#007acc"/>
  <circle cx="26" cy="12" r="1.5" fill="#007acc" opacity="0.7"/>
  <circle cx="6" cy="12" r="1.5" fill="#007acc" opacity="0.7"/>
</svg>
